<?xml version="1.0" encoding="utf-8"?>
<!-- Generator: Adobe Illustrator 19.0.0, SVG Export Plug-In . SVG Version: 6.00 Build 0)  -->
<svg xmlns="http://www.w3.org/2000/svg" xmlns:xlink="http://www.w3.org/1999/xlink" version="1.1" id="Layer_1" x="0px" y="0px" viewBox="0 2 98 98" style="enable-background:new 0 2 98 98;" xml:space="preserve" width="512" height="512">
<style type="text/css">
	.st0{fill:url(#SVGID_1_);}
</style>
<linearGradient id="SVGID_1_" gradientUnits="userSpaceOnUse" x1="49" y1="6.5" x2="49" y2="95.5">
	<stop offset="0" style="stop-color:#00EFD1"/>
	<stop offset="1" style="stop-color:#00ACEA"/>
</linearGradient>
<path class="st0" d="M84.2,6.5H13.8c-1.7,0-3,1.3-3,3v12.7c0,0.7,0.3,1.5,0.8,2l26.7,29.3v38.9c0,1.1,0.6,2.1,1.5,2.6  c0.5,0.3,1,0.4,1.5,0.4c0.5,0,1-0.1,1.5-0.4l15.4-8.8c0.9-0.5,1.5-1.5,1.5-2.6V53.6l26.7-29.3c0.5-0.6,0.8-1.3,0.8-2V9.5  C87.2,7.8,85.9,6.5,84.2,6.5z M81.2,21L54.5,50.4c-0.5,0.6-0.8,1.3-0.8,2V82l-9.4,5.4V52.4c0-0.7-0.3-1.5-0.8-2L16.8,21v-8.5h64.4  V21z"/>
</svg>
